<?xml version="1.0" encoding="UTF-8"?>
<svg id="Layer_1" xmlns="http://www.w3.org/2000/svg" version="1.1" viewBox="0 0 4528.82 5122.61">
  <!-- Generator: Adobe Illustrator 29.7.1, SVG Export Plug-In . SVG Version: 2.1.1 Build 8)  -->
  <defs>
    <style>
      .st0 {
        fill: #231f20;
      }

      .st1 {
        fill: #3c2415;
      }

      .st2 {
        fill: #c2b59b;
      }

      .st3 {
        fill: #e6e7e8;
      }
    </style>
  </defs>
  <g>
    <path class="st2" d="M951.32,1973.18c-126.93,61.6-124.69,1504.22-116.49,2183.56,2.73,236.71,146.55,447.84,364.38,540.49,847.99,360.66,1729.26,119.22,2178.09-56.14,219.08-85.69,367.11-291.6,378.29-526.58,22.11-471.19-52.41-1221.56-108.3-1697.47-31.54-267.76-239.44-481.12-506.21-518.63-1479.14-208.64-2189.52,74.76-2189.52,74.76h-.25Z"/>
    <path class="st2" d="M837.56,2016.65C79.98,1603.34,217.59,3650.78,235.47,4148.3c2.98,86.69,26.83,172.13,74.27,244.66,152.76,233.73,395.43,147.54,395.43,147.54,116.24-56.63,154.25-110.03,153.75-186.79-.5-65.82-71.54-111.52-129.66-79.98-7.95,4.22-13.91,9.19-17.88,13.91-20.62,23.6-73.03,53.9-104.32,51.66-57.13-3.97-104.32-18.13-156.23-126.92-23.1-47.94-51.66-119.22-53.65-172.38-32.29-878.79,81.47-1698.96,81.47-1698.96,63.84-275.96,196.47-165.42,223.8-148.78,2.48,1.49,4.97,3.48,7.45,5.22,99.6,78.74,149.03,3.97,149.03,3.97,74.76-106.31,23.85-150.77-3.97-169.65-6.21-4.22-10.43-11.67-17.39-15.15h0Z"/>
  </g>
  <ellipse class="st1" cx="2238.95" cy="2475.92" rx="853.45" ry="300.3"/>
  <ellipse class="st1" cx="2264.53" cy="3186.05" rx="1064.33" ry="311.97"/>
  <ellipse class="st1" cx="2238.95" cy="3994.8" rx="1266.02" ry="391.46"/>
  <path class="st3" d="M1657.73,378.3c-11.92-1.49-20.12,11.43-14.16,21.61,127.42,217.34,56.63,177.35-14.41,342.77-71.04,165.42,42.47,318.18,42.47,318.18,104.32,171.39-127.92,318.18-127.92,440.39s81.22,215.6,84.95,220.07c0,0,0,.25.5.5l28.07,29.06c8.2,8.45,22.6,3.97,24.59-7.7,24.09-137.36-21.36-186.29-21.36-186.29-41.73-64.58,106.06-260.56,117.98-276.2.5-.75,1.24-1.24,1.74-1.99,159.96-132.14-13.91-402.38-31.3-428.47-.99-1.49-1.74-2.98-1.99-4.72-33.53-125.93,96.37-293.1,119.97-321.66,2.48-2.98,3.48-6.46,3.23-10.18-8.45-100.6-150.27-128.17-212.37-135.62v.25Z"/>
  <path class="st3" d="M2215.6,45.21c-11.92-1.49-20.12,12.42-14.16,23.6,127.42,236.71,56.63,193.24-14.41,373.08-71.04,179.83,42.47,346.25,42.47,346.25,104.32,186.54-127.92,346.25-127.92,479.38s81.22,234.72,84.95,239.44c0,0,0,.25.5.5l28.07,31.79c8.2,9.19,22.6,4.22,24.59-8.45,24.09-149.53-21.36-202.68-21.36-202.68-41.73-70.29,106.06-283.41,117.98-300.55.5-.75,1.24-1.49,1.74-1.99,159.96-143.82-13.91-437.9-31.3-466.47-.99-1.49-1.74-3.23-1.99-4.97-33.53-137.11,96.37-318.93,119.97-350.22,2.48-3.23,3.48-7.2,3.23-11.18-8.45-109.54-150.27-139.59-212.37-147.54h0Z"/>
  <path class="st3" d="M2770.99,378.3c-11.92-1.49-20.12,11.43-14.16,21.61,127.42,217.34,56.63,177.35-14.41,342.77-71.04,165.42,42.47,318.18,42.47,318.18,104.32,171.39-127.92,318.18-127.92,440.39s81.22,215.6,84.95,220.07c0,0,0,.25.5.5l28.07,29.06c8.2,8.45,22.6,3.97,24.59-7.7,24.09-137.36-21.36-186.29-21.36-186.29-41.73-64.58,106.06-260.56,117.98-276.2.5-.75,1.24-1.24,1.74-1.99,159.96-132.14-13.91-402.38-31.3-428.47-.99-1.49-1.74-2.98-1.99-4.72-33.53-125.93,96.37-293.1,119.97-321.66,2.48-2.98,3.48-6.46,3.23-10.18-8.45-100.6-150.27-128.17-212.37-135.62v.25Z"/>
  <g>
    <path class="st0" d="M185.05,4690.03c35.52,0,64.58,11.43,87.18,34.28v-7.7c0-14.16,5.71-21.36,16.89-21.36,12.42,0,18.63,7.7,18.63,23.35v3.23s-.5,6.21-1.74,16.39c-.99,10.18-1.74,22.35-1.74,36.51,0,1.74.25,7.7.99,17.39l1.74,21.86c.25,1.74.5,4.47.5,7.7,0,17.39-6.71,26.08-20.12,26.08-14.16,0-21.36-7.2-21.36-21.86v-2.73l.99-14.65c.25-4.97.5-9.19.5-11.92,0-21.86-7.45-38.75-22.11-51.17-14.65-12.42-35.02-18.63-60.61-18.63-23.6,0-42.47,5.71-56.38,17.39-13.91,11.67-20.86,27.32-20.86,46.95,0,22.85,10.43,39.74,31.05,50.67,11.67,5.71,32.04,11.18,61.1,15.9,43.22,6.95,72.78,16.39,88.67,28.32,23.85,17.88,36.02,42.97,36.02,75.76s-12.17,61.85-36.76,83.21c-24.59,21.36-56.14,32.04-94.88,32.04-41.23,0-75.51-13.16-102.58-39.24v7.95c1.49,5.71,2.24,9.44,2.24,11.18,0,13.16-6.71,19.87-20.12,19.87-14.65,0-21.86-7.7-21.86-22.85,0-1.74.5-3.23,1.74-4.47l2.48-28.32c1.24-14.16,1.74-23.35,1.74-27.32,0-7.2-.99-18.13-2.98-32.79-1.99-14.65-2.98-25.34-2.98-32.79,0-16.39,6.95-24.59,20.62-24.59s21.11,8.2,21.11,24.59v22.35c0,27.32,8.69,48.93,26.08,65.08,17.39,16.14,40.98,24.09,70.54,24.09,27.57,0,49.43-6.46,65.82-19.62,16.39-13.16,24.34-30.8,24.34-53.4,0-34.53-21.86-55.64-65.33-63.09l-31.05-5.46c-30.8-5.46-54.89-11.67-71.78-19.13-15.65-6.95-28.07-17.64-37.26-32.29-9.19-14.65-13.91-31.3-13.91-49.93,0-32.04,11.67-57.87,34.77-77.99,23.35-19.87,53.4-30.05,90.41-30.05l.25,1.24Z"/>
    <path class="st0" d="M539,4993.31c0,27.32,9.19,40.74,27.82,40.74,2.98,0,7.2-.5,13.16-1.24,5.71-.99,10.18-1.24,13.16-1.24,4.72,0,8.69,1.74,12.17,5.22,3.48,3.48,5.22,7.45,5.22,12.17,0,12.67-8.2,19.13-24.59,19.13h-3.23c-1.74-.25-2.98-.5-3.73-.5l-26.58-3.73c-10.18-1.49-21.61-2.24-34.28-2.24-13.91,0-25.83.75-36.51,2.24l-27.32,3.73s-2.48,0-3.73.5h-3.73c-15.9,0-23.85-6.46-23.85-19.13,0-11.67,5.71-17.39,17.39-17.39,2.98,0,7.2.5,13.16,1.24,5.71.99,10.18,1.24,13.16,1.24,18.13,0,27.32-13.66,27.32-40.74v-221.06c0-25.83-13.16-38.75-39.74-38.75h-16.89c-26.08,0-39.24,12.67-39.24,38,0,9.19,0,15.15.5,18.63l2.24,20.12c.25,3.23.5,7.7.5,13.66,0,22.85-6.95,34.28-21.11,34.28-13.41,0-20.12-8.45-20.12-25.09,0-4.72.25-12.92.99-24.59.99-17.39,1.74-28.56,1.74-33.28,0-9.19-.25-18.63-.99-28.32-1.24-19.13-1.74-27.32-1.74-24.59,0-15.15,6.95-22.85,20.62-22.85,4.97,0,16.89.5,35.27,1.74,1.74,0,16.64.75,44.46,2.24h62.1c7.2,0,26.58-.25,58.12-.99,6.95,0,18.63-.5,35.27-1.49,14.9-.99,26.58-1.49,34.77-1.49,18.13,0,27.07,7.45,27.07,22.35v.99c0,3.73-.5,10.43-1.24,20.12-.99,9.69-1.99,20.37-2.98,31.54v5.96c0,5.46.5,13.91,1.74,25.58,1.49,15.15,2.24,24.59,2.24,28.32,0,14.9-7.2,22.35-21.11,22.35s-20.62-9.19-20.62-27.32c0-6.46.5-16.39,1.74-29.31.99-12.92,1.74-22.6,1.74-29.31,0-25.09-14.41-37.75-42.97-37.75h-15.15c-13.41,0-23.1,2.73-28.81,8.45-5.71,5.71-9.19,14.9-9.94,28.07l-2.24,38v185.3l-1.24.5Z"/>
    <path class="st0" d="M773.22,4774.48c0-26.83-9.19-40.24-27.82-40.24-5.22,0-8.94.25-11.43.99-5.71.99-10.68,1.74-14.65,1.74-4.72,0-8.69-1.74-11.92-5.22-3.23-3.48-4.97-7.7-4.97-12.92,0-12.67,7.7-19.13,22.85-19.13.25,0,2.98,0,8.2.5,54.4,3.73,79.48,5.46,76.01,5.46h5.46l130.9-3.73c2.48,0,11.92-.5,28.32-1.74,5.71-.25,10.93-.5,15.65-.5,18.88,0,28.32,8.45,28.32,25.09,0,2.98-.5,12.17-1.49,27.82-.75,11.67-1.24,22.35-1.24,32.04,0,12.67.25,21.61.99,26.58,1.24,10.43,1.74,18.38,1.74,23.35,0,13.91-6.46,20.62-19.37,20.62s-19.37-9.69-19.37-28.81v-28.32c0-30.55-6.46-48.44-19.13-53.9-9.44-3.97-33.78-5.96-73.03-5.96-25.83,0-40.98.5-45.7,1.74-15.65,3.97-23.35,14.9-23.35,32.79v54.4c0,14.41,3.23,22.85,9.69,25.09,2.48.75,6.71.99,12.92.99h22.11c22.6,0,33.78-7.7,33.78-23.35,0-4.47-.5-9.94-1.24-16.89-.99-6.95-1.49-13.16-1.49-18.63,0-14.41,6.46-21.86,19.37-21.86s19.37,7.7,19.37,23.35c0,2.98-1.24,14.16-3.48,33.78-1.99,16.64-2.98,31.3-2.98,44.21,0,7.2.75,20.12,2.24,38.75.25,2.98,1.24,9.19,2.73,19.13.99,7.95,1.74,14.41,1.74,19.13,0,13.16-6.46,19.62-19.62,19.62s-19.13-7.7-19.13-22.85c0-3.97.5-9.69,1.49-17.39.99-7.7,1.24-13.41,1.24-17.39,0-15.65-10.43-23.35-31.05-23.35h-24.59c-10.43,0-16.89,1.74-19.37,5.46-2.48,3.73-3.48,11.43-3.48,23.35v33.78c0,5.71,0,13.66.5,23.35.25,11.92.5,19.87.5,23.84.25,14.41,3.23,23.6,8.69,27.32,3.97,2.48,13.41,3.73,28.32,3.73h74.02c21.36,0,36.02-3.23,44.21-9.44,7.95-6.46,11.92-18.13,11.92-35.77,0-5.46-.25-13.41-.75-24.34-.5-10.68-.75-18.88-.75-24.34,0-16.39,6.46-24.59,19.37-24.59,13.66,0,20.37,8.45,20.37,25.09,0,6.46-.25,16.64-.75,30.05-.5,13.41-.75,23.35-.75,30.05,0,4.97.25,12.67.75,22.6.5,9.94.75,17.64.75,22.6,0,17.14-8.45,25.58-25.09,25.58-3.97,0-10.43-.25-19.13-.99-4.47-.25-12.42-.5-23.85-.5,2.48,0-11.67-.25-42.47-.99-30.8-.75-57.63-.99-79.98-.99-34.03,0-67.56.99-100.1,3.23-1.49,0-2.98,0-4.97.5h-3.23c-15.15,0-22.85-6.46-22.85-19.62,0-11.67,5.71-17.39,16.89-17.39,1.74,0,6.71.25,14.65.99,3.97.99,7.7,1.74,11.43,1.74,18.63,0,27.82-13.66,27.82-40.74v-218.33l-.75-.25Z"/>
    <path class="st0" d="M1343.02,5003.74l-19.62-53.4c-2.24-5.71-4.47-9.44-6.71-10.93s-7.2-2.24-14.41-2.24h-96.87c-7.2,0-12.17,1.24-14.9,3.73-2.73,2.48-6.21,9.44-10.68,20.62l-15.9,41.98c-1.49,3.97-2.24,7.7-2.24,11.43,0,11.67,7.2,17.39,21.36,17.39,3.73,0,8.69-.25,15.4-.99,6.71-.75,11.67-.99,14.9-.99,14.9,0,22.35,6.46,22.35,19.13,0,11.92-8.2,17.88-24.59,17.88-2.98,0-6.95-.5-11.92-.99l-27.32-3.48c-4.97-.75-13.41-.99-25.09-.99-12.67,0-21.61.25-26.58.99l-22.85,2.73c-10.18,1.24-17.64,1.74-22.35,1.74-14.16,0-21.11-5.96-21.11-17.88,0-12.67,6.95-19.13,20.62-19.13,2.98,0,4.97.75,6.46,2.24h7.2c9.69,0,17.14-3.73,22.35-11.43,2.24-2.98,5.71-11.43,10.93-25.58l101.34-274.96c5.71-15.4,17.14-22.85,34.28-22.85s27.82,7.7,33.28,22.85l97.62,270.24c6.21,17.14,11.67,28.32,16.89,33.78,4.97,5.46,12.42,8.2,21.86,8.2,2.98,0,4.97,0,6.46-.75l15.15-1.49c13.91,0,20.62,5.96,20.62,17.88,0,12.67-6.95,19.13-20.62,19.13-3.97,0-9.19-.5-15.9-1.24-22.85-2.73-39.99-4.22-51.17-4.22-13.41,0-35.27,1.49-65.33,4.47-7.7.75-13.41.99-17.39.99-14.41,0-21.86-6.21-21.86-18.63s7.95-18.63,23.85-18.63c3.23,0,8.2.25,14.41.99,6.46.75,11.18.99,14.41.99,11.92,0,17.88-4.97,17.88-14.65,0-1.49-1.49-6.21-4.47-14.16l.25.25ZM1303.78,4892.71l-48.93-150.27-50.17,150.27c-.75,2.24-.99,3.48-.99,3.73,0,3.23,2.73,4.97,8.2,4.97h86.69c4.47,0,6.46-1.49,6.46-4.47,0-.75-.25-2.24-.99-4.47l-.25.25Z"/>
    <path class="st0" d="M1638.1,4740.7l83.95,275.46,92.15-293.59c4.72-15.15,12.92-22.85,24.59-22.85h2.73c3.73,0,8.45.5,14.16,1.74,7.2,1.74,11.92,2.73,14.16,2.73,5.71.75,13.91.99,23.85.99,10.93,0,19.37-.5,25.58-1.74l19.13-3.23s3.23-.5,6.46-.5c16.64,0,25.09,6.46,25.09,19.13,0,11.67-5.71,17.39-17.39,17.39-2.98,0-7.2-.5-12.92-1.24-5.71-.99-9.94-1.24-12.92-1.24-18.63,0-27.82,13.66-27.82,40.74v218.33c0,27.32,9.19,40.74,27.32,40.74,3.73,0,7.7-.5,11.92-1.74,7.95-.75,12.67-.99,14.16-.99,11.67,0,17.39,5.71,17.39,17.39,0,13.16-7.7,19.62-23.35,19.62.75,0-1.99-.25-8.2-.99-25.09-2.98-46.2-4.47-63.84-4.47s-33.53,1.24-48.93,3.73c-6.46.99-12.42,1.74-17.39,1.74-14.16,0-21.11-5.96-21.11-18.13s7.2-18.88,21.86-18.88c3.73,0,6.46,0,8.2.75,7.95.99,12.92,1.49,14.16,1.49,13.16,0,21.36-13.66,24.59-40.74.75-5.71.99-24.34.99-55.39,0-11.92.25-29.31.99-52.16v-145.06c0-2.24-.99-3.23-2.73-3.23-.99,0-2.24.99-3.23,3.23l-100.1,310.48c-4.47,13.66-14.41,20.62-30.55,20.62-9.44,0-16.39-1.24-20.86-3.97-4.47-2.73-8.2-8.2-10.68-16.64l-98.61-310.48c-.99-2.24-2.48-3.23-3.73-3.23s-2.24.99-2.24,3.23l3.23,251.86c.25,26.33,7.7,39.49,21.86,39.49h22.85c14.16,0,21.11,6.21,21.11,18.63s-7.2,18.63-21.86,18.63c-2.48,0-6.46-.25-11.43-.99-7.95-.99-16.64-2.24-25.58-3.73-7.2-.99-16.64-1.74-27.82-1.74-19.87,0-32.79.5-38.75,1.74l-22.85,4.47s-1.74,0-3.23.5h-3.23c-16.64,0-25.09-6.46-25.09-19.13,0-4.97,1.74-9.44,4.97-12.92,3.23-3.48,7.2-5.22,11.92-5.22,3.97,0,8.69.5,14.16,1.74,5.46.99,9.44,1.74,11.92,1.74,18.63,0,27.82-13.66,27.82-40.74v-218.83c0-27.32-9.19-40.74-27.82-40.74-2.98,0-7.2.5-13.16,1.24-5.71.99-10.18,1.24-13.16,1.24-11.18,0-16.89-5.71-16.89-17.39,0-12.67,8.2-19.13,24.59-19.13,1.49,0,3.73,0,7.2.5l19.13,2.24c9.44.99,18.38,1.74,26.58,1.74,6.95,0,16.14-.75,28.07-2.24,11.67-1.49,20.37-2.24,25.83-2.24,14.16,0,23.6,8.94,28.32,26.58l3.73,14.16.74-.5Z"/>
    <path class="st0" d="M2366.37,4755.35c0,40.24-26.08,74.02-78.49,100.84l5.96,9.69c9.69,16.39,27.32,42.23,52.16,77.99l5.96,7.7,3.23-9.19,21.11-56.14c25.34-66.82,61.6-100.1,108.3-100.1,21.86,0,39.49,6.21,52.91,18.88,13.41,12.42,20.12,29.06,20.12,49.18s-6.46,35.52-19.13,48.68c-12.67,13.16-28.56,19.87-47.44,19.87-13.91,0-25.09-3.48-33.78-10.43-8.69-6.95-13.16-15.9-13.16-27.32,0-17.39,7.7-26.08,22.85-26.08,13.16,0,19.62,5.96,19.62,17.88,0,1.49-.99,4.47-2.73,8.69,4.97.75,7.95.99,8.69.99,6.95,0,12.92-2.98,17.88-8.69,4.97-5.71,7.7-12.92,7.7-21.11,0-10.43-3.48-18.88-10.18-25.34-6.71-6.46-15.9-9.44-27.57-9.44-18.88,0-34.28,10.43-46.2,31.05-9.69,16.64-21.86,44.71-36.02,83.46-7.7,21.11-14.65,37.51-21.36,49.18,15.65,17.39,28.56,29.06,39.24,35.02,10.68,5.96,23.84,8.69,39.74,8.69,3.23,0,8.2-.5,14.41-1.24,6.46-.99,11.18-1.24,14.41-1.24,14.9,0,22.35,6.71,22.35,20.12,0,12.67-7.7,19.13-22.85,19.13h-52.91c-25.09,0-51.66-14.9-79.98-44.71-9.94,11.18-18.13,19.13-25.09,23.84-22.6,15.65-48.44,23.35-77.99,23.35-33.03,0-60.11-9.94-81.22-30.05-21.11-19.87-31.55-45.7-31.55-77.25,0-42.47,17.88-75.01,53.4-97.37,11.92-7.7,23.1-13.91,33.28-19.13l6.46-3.23c-19.37-34.77-28.81-62.84-28.81-83.95s7.45-39.49,22.6-52.91c15.15-13.41,35.02-20.12,59.61-20.12s46.2,6.46,61.1,19.13c14.9,12.67,22.35,30.05,22.35,51.66h.99ZM2270,4912.83c-8.69-13.41-16.64-26.33-23.35-38.25-13.91,6.46-25.09,13.66-33.78,21.36-19.87,17.14-30.05,38.75-30.05,65.08,0,20.37,6.46,37.01,19.37,49.43,12.92,12.67,29.56,18.88,50.42,18.88,30.8,0,55.64-12.67,74.52-37.75-24.34-31.3-43.47-57.63-57.13-78.74h0ZM2245.41,4755.35c0,13.91,7.95,36.51,23.84,68.06,35.27-16.64,52.91-38,52.91-64.33,0-11.67-3.48-20.86-10.68-28.07-7.2-7.2-16.64-10.68-28.56-10.68-11.18,0-20.37,3.23-27.32,9.44-6.95,6.46-10.43,14.9-10.43,25.34l.25.25Z"/>
    <path class="st0" d="M2865.63,4690.03c35.52,0,64.58,11.43,87.18,34.28v-7.7c0-14.16,5.71-21.36,16.89-21.36,12.42,0,18.63,7.7,18.63,23.35v3.23s-.5,6.21-1.74,16.39c-.99,10.18-1.74,22.35-1.74,36.51,0,1.74.25,7.7.99,17.39l1.74,21.86c.25,1.74.5,4.47.5,7.7,0,17.39-6.71,26.08-20.12,26.08-14.16,0-21.36-7.2-21.36-21.86v-2.73l.99-14.65c.25-4.97.5-9.19.5-11.92,0-21.86-7.45-38.75-22.11-51.17-14.65-12.42-35.02-18.63-60.61-18.63-23.6,0-42.47,5.71-56.38,17.39-13.91,11.67-20.86,27.32-20.86,46.95,0,22.85,10.43,39.74,31.05,50.67,11.67,5.71,32.04,11.18,61.1,15.9,43.22,6.95,72.78,16.39,88.67,28.32,23.84,17.88,36.02,42.97,36.02,75.76s-12.17,61.85-36.76,83.21c-24.59,21.36-56.14,32.04-94.88,32.04-41.23,0-75.51-13.16-102.58-39.24v7.95c1.49,5.71,2.24,9.44,2.24,11.18,0,13.16-6.71,19.87-20.12,19.87-14.65,0-21.86-7.7-21.86-22.85,0-1.74.5-3.23,1.74-4.47l2.48-28.32c1.24-14.16,1.74-23.35,1.74-27.32,0-7.2-.99-18.13-2.98-32.79-1.99-14.65-2.98-25.34-2.98-32.79,0-16.39,6.95-24.59,20.62-24.59s21.11,8.2,21.11,24.59v22.35c0,27.32,8.69,48.93,26.08,65.08,17.39,16.14,40.98,24.09,70.54,24.09,27.57,0,49.43-6.46,65.82-19.62,16.39-13.16,24.34-30.8,24.34-53.4,0-34.53-21.86-55.64-65.33-63.09l-31.05-5.46c-30.8-5.46-54.89-11.67-71.78-19.13-15.65-6.95-28.07-17.64-37.26-32.29-9.19-14.65-13.91-31.3-13.91-49.93,0-32.04,11.67-57.87,34.77-77.99,23.35-19.87,53.4-30.05,90.41-30.05l.25,1.24Z"/>
    <path class="st0" d="M3219.82,4993.31c0,27.32,9.19,40.74,27.82,40.74,2.98,0,7.2-.5,13.16-1.24,5.71-.99,10.18-1.24,13.16-1.24,4.72,0,8.69,1.74,12.17,5.22,3.48,3.48,5.22,7.45,5.22,12.17,0,12.67-8.2,19.13-24.59,19.13h-3.23c-1.74-.25-2.98-.5-3.73-.5l-26.58-3.73c-10.18-1.49-21.61-2.24-34.28-2.24-13.91,0-25.83.75-36.51,2.24l-27.32,3.73s-2.48,0-3.73.5h-3.73c-15.9,0-23.84-6.46-23.84-19.13,0-11.67,5.71-17.39,17.39-17.39,2.98,0,7.2.5,13.16,1.24,5.71.99,10.18,1.24,13.16,1.24,18.13,0,27.32-13.66,27.32-40.74v-221.06c0-25.83-13.16-38.75-39.74-38.75h-16.89c-26.08,0-39.24,12.67-39.24,38,0,9.19,0,15.15.5,18.63l2.24,20.12c.25,3.23.5,7.7.5,13.66,0,22.85-6.95,34.28-21.11,34.28-13.41,0-20.12-8.45-20.12-25.09,0-4.72.25-12.92.99-24.59.99-17.39,1.74-28.56,1.74-33.28,0-9.19-.25-18.63-.99-28.32-1.24-19.13-1.74-27.32-1.74-24.59,0-15.15,6.95-22.85,20.62-22.85,4.97,0,16.89.5,35.27,1.74,1.74,0,16.64.75,44.46,2.24h62.1c7.2,0,26.58-.25,58.12-.99,6.95,0,18.63-.5,35.27-1.49,14.9-.99,26.58-1.49,34.77-1.49,18.13,0,27.07,7.45,27.07,22.35v.99c0,3.73-.5,10.43-1.24,20.12-.99,9.69-1.99,20.37-2.98,31.54v5.96c0,5.46.5,13.91,1.74,25.58,1.49,15.15,2.24,24.59,2.24,28.32,0,14.9-7.2,22.35-21.11,22.35s-20.62-9.19-20.62-27.32c0-6.46.5-16.39,1.74-29.31.99-12.92,1.74-22.6,1.74-29.31,0-25.09-14.41-37.75-42.97-37.75h-15.15c-13.41,0-23.1,2.73-28.81,8.45-5.71,5.71-9.19,14.9-9.94,28.07l-2.24,38v185.3l-1.24.5Z"/>
    <path class="st0" d="M3549.93,5077.26c-48.19,0-86.44-17.39-114.75-52.16-28.07-34.77-42.23-81.97-42.23-141.58s14.16-107.55,42.47-141.83c28.32-34.28,67.31-51.42,116.99-51.42s85.44,16.64,113.51,50.17c28.07,33.53,42.23,78.74,42.23,135.62,0,61.85-14.16,110.78-42.72,147.04-28.56,36.26-67.06,54.4-115.75,54.4l.25-.25ZM3550.92,4729.27c-34.77,0-61.85,13.41-81.22,40.24-19.13,26.83-28.81,64.58-28.81,113.26s9.69,87.68,28.81,114.75c19.13,27.07,46.2,40.49,80.73,40.49s60.61-14.16,80.23-42.23c19.87-28.07,29.81-66.32,29.81-114.75s-9.44-86.19-28.32-112.52c-18.88-26.33-45.95-39.49-81.22-39.49v.25Z"/>
    <path class="st0" d="M3890.47,4724.3l146.3,304.52v-219.57c0-28.32,0-43.96-.5-46.95-3.23-18.88-12.42-28.32-27.32-28.32-2.98,0-7.2.5-13.16,1.24-5.71.99-10.18,1.24-13.16,1.24-4.72,0-8.69-1.74-12.17-5.22-3.48-3.48-5.22-7.45-5.22-12.17,0-13.16,8.2-19.62,24.59-19.62,3.23,0,5.71,0,7.2.5l24.59,3.23c10.93,1.49,21.11,2.24,30.55,2.24s21.86-.99,37.51-2.98c5.46-.75,11.92-1.49,19.13-2.48.75,0,1.99,0,3.73-.5h3.73c15.65,0,23.35,6.21,23.35,18.88s-7.45,18.13-22.11,18.13h-11.67c-11.18,0-18.38,2.48-21.61,6.95-3.23,4.72-5.46,15.15-6.21,31.05v231.74c0,25.09-2.73,42.72-8.45,52.66-5.71,10.18-15.4,15.15-29.31,15.15-17.88,0-33.03-12.67-45.45-38l-143.32-296.82v253.35c0,27.32,9.19,40.74,27.82,40.74,2.98,0,7.2-.25,13.16-.75,5.96-.5,10.18-.75,13.16-.75,11.67,0,17.39,5.71,17.39,17.39,0,12.42-8.2,18.63-24.59,18.63h-3.23c-1.74-.25-2.98-.5-3.73-.5l-22.35-3.23c-12.42-1.74-23.84-2.73-34.77-2.73-9.44,0-21.61.99-36.51,2.73l-26.58,3.23s-1.99,0-3.73.5h-4.47c-15.65,0-23.35-6.46-23.35-19.13,0-11.18,5.71-16.89,17.39-16.89,1.74,0,6.71.25,14.65.99,3.97.99,7.7,1.74,11.43,1.74,18.63,0,27.82-13.66,27.82-40.74v-218.83c0-27.32-9.44-40.74-28.07-40.74-2.48,0-6.21.25-10.93.99-6.95.99-11.92,1.74-15.15,1.74-11.43,0-17.39-5.96-17.39-17.88,0-12.67,7.7-19.13,23.35-19.13,2.24,0,4.97,0,8.69.5,18.13,1.74,32.04,2.73,41.98,2.73,5.46,0,13.66-.5,24.34-1.74,10.93-.99,19.13-1.74,24.59-1.74,11.18,0,18.63,3.73,22.35,11.43l5.96,13.16h-.25Z"/>
    <path class="st0" d="M4226.78,4774.48c0-26.83-9.19-40.24-27.82-40.24-5.22,0-8.94.25-11.43.99-5.71.99-10.68,1.74-14.65,1.74-4.72,0-8.69-1.74-11.92-5.22-3.23-3.48-4.97-7.7-4.97-12.92,0-12.67,7.7-19.13,22.85-19.13.25,0,2.98,0,8.2.5,54.4,3.73,79.48,5.46,76.01,5.46h5.46l130.9-3.73c2.48,0,11.92-.5,28.32-1.74,5.71-.25,10.93-.5,15.65-.5,18.88,0,28.32,8.45,28.32,25.09,0,2.98-.5,12.17-1.49,27.82-.75,11.67-1.24,22.35-1.24,32.04,0,12.67.25,21.61.99,26.58,1.24,10.43,1.74,18.38,1.74,23.35,0,13.91-6.46,20.62-19.37,20.62s-19.37-9.69-19.37-28.81v-28.32c0-30.55-6.46-48.44-19.13-53.9-9.44-3.97-33.78-5.96-73.03-5.96-25.83,0-40.98.5-45.7,1.74-15.65,3.97-23.35,14.9-23.35,32.79v54.4c0,14.41,3.23,22.85,9.69,25.09,2.48.75,6.71.99,12.92.99h22.11c22.6,0,33.78-7.7,33.78-23.35,0-4.47-.5-9.94-1.24-16.89-.99-6.95-1.49-13.16-1.49-18.63,0-14.41,6.46-21.86,19.37-21.86s19.37,7.7,19.37,23.35c0,2.98-1.24,14.16-3.48,33.78-1.99,16.64-2.98,31.3-2.98,44.21,0,7.2.75,20.12,2.24,38.75.25,2.98,1.24,9.19,2.73,19.13.99,7.95,1.74,14.41,1.74,19.13,0,13.16-6.46,19.62-19.62,19.62s-19.13-7.7-19.13-22.85c0-3.97.5-9.69,1.49-17.39.99-7.7,1.24-13.41,1.24-17.39,0-15.65-10.43-23.35-31.05-23.35h-24.59c-10.43,0-16.89,1.74-19.37,5.46-2.48,3.73-3.48,11.43-3.48,23.35v33.78c0,5.71,0,13.66.5,23.35.5,11.92.5,19.87.5,23.84.25,14.41,3.23,23.6,8.69,27.32,3.97,2.48,13.41,3.73,28.32,3.73h74.02c21.36,0,36.02-3.23,44.21-9.44,7.95-6.46,11.92-18.13,11.92-35.77,0-5.46-.25-13.41-.75-24.34-.5-10.68-.75-18.88-.75-24.34,0-16.39,6.46-24.59,19.37-24.59,13.66,0,20.37,8.45,20.37,25.09,0,6.46-.25,16.64-.75,30.05-.5,13.41-.75,23.35-.75,30.05,0,4.97.25,12.67.75,22.6.5,9.94.75,17.64.75,22.6,0,17.14-8.45,25.58-25.09,25.58-3.97,0-10.43-.25-19.13-.99-4.47-.25-12.42-.5-23.84-.5,2.48,0-11.67-.25-42.47-.99-30.8-.75-57.63-.99-79.98-.99-34.28,0-67.56.99-100.35,3.23-1.49,0-2.98,0-4.97.5h-3.23c-15.15,0-22.85-6.46-22.85-19.62,0-11.67,5.71-17.39,16.89-17.39,1.74,0,6.71.25,14.65.99,3.97.99,7.7,1.74,11.43,1.74,18.63,0,27.82-13.66,27.82-40.74v-218.33l-.5-.25Z"/>
  </g>
</svg>